<svg width="233" height="48" viewBox="0 0 233 48" fill="none" xmlns="http://www.w3.org/2000/svg">
<rect width="233" height="48" rx="20" fill="#EC5252"/>
<path d="M81.5 30L76.05 21.575L79.325 19.6L86.1 30H81.5ZM70.125 30V12.5H74.15V30H70.125ZM72.975 22.95V19.575H79.075V22.95H72.975ZM79.7 21.7L75.975 21.25L81.65 12.5H85.925L79.7 21.7ZM93.802 30.2C92.3686 30.2 91.0936 29.9 89.977 29.3C88.877 28.7 88.002 27.8833 87.352 26.85C86.7186 25.8 86.402 24.6083 86.402 23.275C86.402 21.925 86.7186 20.7333 87.352 19.7C88.002 18.65 88.877 17.8333 89.977 17.25C91.0936 16.65 92.3686 16.35 93.802 16.35C95.2186 16.35 96.4853 16.65 97.602 17.25C98.7186 17.8333 99.5936 18.6417 100.227 19.675C100.86 20.7083 101.177 21.9083 101.177 23.275C101.177 24.6083 100.86 25.8 100.227 26.85C99.5936 27.8833 98.7186 28.7 97.602 29.3C96.4853 29.9 95.2186 30.2 93.802 30.2ZM93.802 27C94.452 27 95.0353 26.85 95.552 26.55C96.0686 26.25 96.477 25.825 96.777 25.275C97.077 24.7083 97.227 24.0417 97.227 23.275C97.227 22.4917 97.077 21.825 96.777 21.275C96.477 20.725 96.0686 20.3 95.552 20C95.0353 19.7 94.452 19.55 93.802 19.55C93.152 19.55 92.5686 19.7 92.052 20C91.5353 20.3 91.1186 20.725 90.802 21.275C90.502 21.825 90.352 22.4917 90.352 23.275C90.352 24.0417 90.502 24.7083 90.802 25.275C91.1186 25.825 91.5353 26.25 92.052 26.55C92.5686 26.85 93.152 27 93.802 27ZM113.034 26.8L112.184 27.7V16.55H116.084V27.7L115.184 26.8H121.384L120.509 27.7V16.55H124.384V30H103.859V16.55H107.734V27.7L106.859 26.8H113.034ZM128.127 30V16.55H132.002V24.55L138.552 16.55H142.127V30H138.252V22L131.727 30H128.127ZM155.401 30L150.901 23.625L154.076 21.75L160.001 30H155.401ZM145.876 30V16.55H149.776V30H145.876ZM148.626 24.9V21.775H153.326V24.9H148.626ZM154.451 23.725L150.801 23.325L155.526 16.55H159.676L154.451 23.725Z" fill="white"/>
</svg>
